<svg width="60" height="60" viewBox="0 0 60 60" fill="none" xmlns="http://www.w3.org/2000/svg">
<path d="M32.57 5C35.3825 5.0075 36.81 5.0225 38.0425 5.0575L38.5275 5.075C39.0875 5.095 39.64 5.12 40.3075 5.15C42.9675 5.275 44.7825 5.695 46.375 6.3125C48.025 6.9475 49.415 7.8075 50.805 9.195C52.0767 10.4443 53.0604 11.9562 53.6875 13.625C54.305 15.2175 54.725 17.0325 54.85 19.695C54.88 20.36 54.905 20.9125 54.925 21.475L54.94 21.96C54.9775 23.19 54.9925 24.6175 54.9975 27.43L55 29.295V32.57C55.006 34.3935 54.9869 36.217 54.9425 38.04L54.9275 38.525C54.9075 39.0875 54.8825 39.64 54.8525 40.305C54.7275 42.9675 54.3025 44.78 53.6875 46.375C53.0604 48.0438 52.0767 49.5557 50.805 50.805C49.5556 52.0767 48.0438 53.0605 46.375 53.6875C44.7825 54.305 42.9675 54.725 40.3075 54.85L38.5275 54.925L38.0425 54.94C36.81 54.975 35.3825 54.9925 32.57 54.9975L30.705 55H27.4325C25.6081 55.0064 23.7838 54.9873 21.96 54.9425L21.475 54.9275C20.8815 54.905 20.2881 54.8792 19.695 54.85C17.035 54.725 15.22 54.305 13.625 53.6875C11.957 53.0601 10.4461 52.0764 9.19746 50.805C7.92482 49.5559 6.94023 48.044 6.31246 46.375C5.69496 44.7825 5.27496 42.9675 5.14996 40.305L5.07496 38.525L5.06246 38.04C5.01637 36.217 4.99554 34.3935 4.99996 32.57V27.43C4.99304 25.6065 5.01137 23.783 5.05496 21.96L5.07246 21.475C5.09246 20.9125 5.11746 20.36 5.14746 19.695C5.27246 17.0325 5.69246 15.22 6.30996 13.625C6.93919 11.9555 7.92552 10.4436 9.19996 9.195C10.4478 7.92387 11.9579 6.94018 13.625 6.3125C15.22 5.695 17.0325 5.275 19.695 5.15C20.36 5.12 20.915 5.095 21.475 5.075L21.96 5.06C23.7829 5.01558 25.6064 4.99641 27.43 5.0025L32.57 5ZM30 17.5C26.6847 17.5 23.5053 18.817 21.1611 21.1612C18.8169 23.5054 17.5 26.6848 17.5 30C17.5 33.3152 18.8169 36.4946 21.1611 38.8388C23.5053 41.183 26.6847 42.5 30 42.5C33.3152 42.5 36.4946 41.183 38.8388 38.8388C41.183 36.4946 42.5 33.3152 42.5 30C42.5 26.6848 41.183 23.5054 38.8388 21.1612C36.4946 18.817 33.3152 17.5 30 17.5ZM30 22.5C30.9849 22.4998 31.9602 22.6937 32.8702 23.0704C33.7802 23.4472 34.6071 23.9995 35.3036 24.6958C36.0002 25.3921 36.5528 26.2188 36.9298 27.1287C37.3069 28.0386 37.501 29.0138 37.5012 29.9988C37.5014 30.9837 37.3075 31.959 36.9308 32.869C36.554 33.779 36.0017 34.6059 35.3054 35.3024C34.6091 35.999 33.7824 36.5516 32.8725 36.9286C31.9626 37.3057 30.9874 37.4998 30.0025 37.5C28.0133 37.5 26.1057 36.7098 24.6992 35.3033C23.2926 33.8968 22.5025 31.9891 22.5025 30C22.5025 28.0109 23.2926 26.1032 24.6992 24.6967C26.1057 23.2902 28.0133 22.5 30.0025 22.5M43.1275 13.75C42.2987 13.75 41.5038 14.0792 40.9177 14.6653C40.3317 15.2513 40.0025 16.0462 40.0025 16.875C40.0025 17.7038 40.3317 18.4987 40.9177 19.0847C41.5038 19.6708 42.2987 20 43.1275 20C43.9563 20 44.7511 19.6708 45.3372 19.0847C45.9232 18.4987 46.2525 17.7038 46.2525 16.875C46.2525 16.0462 45.9232 15.2513 45.3372 14.6653C44.7511 14.0792 43.9563 13.75 43.1275 13.75Z" fill="#FF8400"/>
</svg>
