<svg width="60" height="60" viewBox="0 0 60 60" fill="none" xmlns="http://www.w3.org/2000/svg">
<path d="M17.3501 12.5005C17.3494 13.8266 16.822 15.0981 15.8839 16.0353C14.9457 16.9726 13.6737 17.4987 12.3476 17.498C11.0215 17.4974 9.75001 16.97 8.8128 16.0318C7.87558 15.0937 7.34944 13.8216 7.3501 12.4955C7.35076 11.1695 7.87818 9.89796 8.81633 8.96075C9.75448 8.02353 11.0265 7.49738 12.3526 7.49805C13.6787 7.49871 14.9502 8.02613 15.8874 8.96428C16.8246 9.90243 17.3508 11.1745 17.3501 12.5005ZM17.5001 21.2005H7.5001V52.5005H17.5001V21.2005ZM33.3001 21.2005H23.3501V52.5005H33.2001V36.0755C33.2001 26.9255 45.1251 26.0755 45.1251 36.0755V52.5005H55.0001V32.6755C55.0001 17.2505 37.3501 17.8255 33.2001 25.4005L33.3001 21.2005Z" fill="#041737"/>
</svg>
