<svg width="125" height="43" viewBox="0 0 125 43" fill="none" xmlns="http://www.w3.org/2000/svg">
<rect width="125" height="43" fill="#FF8400"/>
<path d="M14.8379 29.8091V18.4785H16.52V19.3354C16.6427 19.0223 16.8353 18.7853 17.0977 18.6245C17.36 18.4637 17.6245 18.3833 17.8911 18.3833C18.3778 18.3833 18.7459 18.5145 18.9956 18.7769C19.2453 19.035 19.4146 19.3883 19.5034 19.8369C19.5923 20.2855 19.6367 20.7891 19.6367 21.3477V24.8198C19.6367 25.4292 19.5944 25.9836 19.5098 26.4829C19.4251 26.9823 19.2453 27.38 18.9702 27.6763C18.6994 27.9683 18.2847 28.1143 17.7261 28.1143C17.4679 28.1143 17.2331 28.0444 17.0215 27.9048C16.8099 27.7651 16.6427 27.6043 16.52 27.4224V29.8091H14.8379ZM17.2627 26.7495C17.5462 26.7495 17.7303 26.612 17.8149 26.3369C17.8996 26.0576 17.9419 25.6598 17.9419 25.1436V21.1953C17.9419 20.9202 17.9271 20.6727 17.8975 20.4526C17.8721 20.2284 17.8128 20.0506 17.7197 19.9194C17.6266 19.7882 17.4785 19.7227 17.2754 19.7227C17.1188 19.7227 16.9834 19.7629 16.8691 19.8433C16.7591 19.9237 16.6724 20.0697 16.6089 20.2812C16.5496 20.4928 16.52 20.7954 16.52 21.189V25.2134C16.52 25.7 16.5666 26.0788 16.6597 26.3496C16.7528 26.6162 16.9538 26.7495 17.2627 26.7495ZM22.6029 28V16.7329H24.2786V28H22.6029ZM28.9586 28.0952C28.3069 28.0952 27.8541 27.8582 27.6002 27.3843C27.3506 26.9103 27.2215 26.2819 27.213 25.499V24.8896C27.213 24.3818 27.285 23.9692 27.4288 23.6519C27.577 23.3345 27.7864 23.0763 28.0573 22.8774C28.3281 22.6785 28.6518 22.505 29.0285 22.3569C29.4051 22.2088 29.824 22.0501 30.2853 21.8809V21.0493C30.2853 20.7277 30.2726 20.4717 30.2472 20.2812C30.2218 20.0866 30.1647 19.9448 30.0758 19.856C29.987 19.7671 29.8494 19.7227 29.6632 19.7227C29.4813 19.7227 29.3416 19.7692 29.2443 19.8623C29.1512 19.9512 29.0877 20.0908 29.0538 20.2812C29.02 20.4674 29.0031 20.7065 29.0031 20.9985V21.4238H27.34V21.1382C27.34 20.7023 27.376 20.313 27.4479 19.9702C27.5241 19.6274 27.651 19.3376 27.8287 19.1006C28.0065 18.8594 28.2477 18.6774 28.5524 18.5547C28.8613 18.4277 29.2485 18.3643 29.714 18.3643C30.1245 18.3643 30.4757 18.4235 30.7677 18.542C31.0597 18.6562 31.2967 18.8298 31.4787 19.0625C31.6606 19.291 31.7939 19.5788 31.8786 19.9258C31.9632 20.2728 32.0055 20.6769 32.0055 21.1382V28H30.3107V27.0542C30.2599 27.2362 30.1732 27.4076 30.0504 27.5684C29.9277 27.7249 29.7732 27.8519 29.5871 27.9492C29.4051 28.0465 29.1956 28.0952 28.9586 28.0952ZM29.5426 26.8003C29.7542 26.8003 29.9235 26.7241 30.0504 26.5718C30.1774 26.4194 30.2557 26.265 30.2853 26.1084V22.833C30.0314 22.9473 29.8177 23.0552 29.6442 23.1567C29.4707 23.2541 29.331 23.362 29.2252 23.4805C29.1194 23.599 29.0433 23.7386 28.9967 23.8994C28.9502 24.0602 28.9269 24.257 28.9269 24.4897V25.5562C28.9269 25.992 28.9713 26.3094 29.0602 26.5083C29.1533 26.703 29.3141 26.8003 29.5426 26.8003ZM36.9648 28.1206C36.1989 28.1206 35.6297 27.9027 35.2573 27.4668C34.8849 27.0309 34.6987 26.3179 34.6987 25.3276V24.7119H36.2793V25.48C36.2793 25.8947 36.33 26.21 36.4316 26.4258C36.5332 26.6416 36.6982 26.7495 36.9267 26.7495C37.1468 26.7495 37.3097 26.6755 37.4155 26.5273C37.5213 26.3792 37.5742 26.1232 37.5742 25.7593C37.5742 25.5477 37.5424 25.3424 37.479 25.1436C37.4197 24.9447 37.3245 24.75 37.1933 24.5596C37.0664 24.3649 36.9013 24.1766 36.6982 23.9946L35.8413 23.2202C35.4477 22.8647 35.1536 22.4818 34.9589 22.0713C34.7643 21.6566 34.667 21.1995 34.667 20.7002C34.667 19.8919 34.8553 19.3016 35.2319 18.9292C35.6128 18.5526 36.1756 18.3643 36.9204 18.3643C37.4028 18.3643 37.8027 18.4552 38.1201 18.6372C38.4375 18.8149 38.6744 19.1048 38.831 19.5068C38.9876 19.9089 39.0659 20.4484 39.0659 21.1255V21.646H37.5615V21.0176C37.5615 20.5986 37.5128 20.2812 37.4155 20.0654C37.3224 19.8496 37.1616 19.7417 36.9331 19.7417C36.7088 19.7417 36.5437 19.8052 36.4379 19.9321C36.3322 20.0549 36.275 20.2728 36.2666 20.5859C36.2623 20.7552 36.2835 20.9224 36.33 21.0874C36.3766 21.2482 36.4485 21.4069 36.5459 21.5635C36.6474 21.7158 36.7786 21.866 36.9394 22.0142L37.8408 22.833C38.3147 23.2604 38.6639 23.7069 38.8881 24.1724C39.1167 24.6379 39.2309 25.1414 39.2309 25.6831C39.2309 26.4829 39.049 27.0902 38.685 27.5049C38.3211 27.9154 37.7477 28.1206 36.9648 28.1206ZM43.6126 28.0635C43.2063 28.0635 42.8953 28.0127 42.6795 27.9111C42.4637 27.8053 42.3155 27.6403 42.2351 27.416C42.1547 27.1917 42.1145 26.9019 42.1145 26.5464V19.894H41.3401V18.6753H42.1145V16.8281H43.7967V18.6753H44.7234V19.894H43.7967V26.2544C43.7967 26.4025 43.8199 26.5146 43.8665 26.5908C43.913 26.667 44.004 26.7178 44.1394 26.7432C44.2791 26.7686 44.4843 26.7812 44.7552 26.7812V28.0635H43.6126ZM47.4039 28V18.4785H49.086V28H47.4039ZM47.3976 17.6025V16.1426H49.0924V17.6025H47.3976ZM54.5214 28.1143C54.0348 28.1143 53.6327 28.0402 53.3153 27.8921C52.998 27.7397 52.7483 27.5218 52.5663 27.2383C52.3886 26.9548 52.2638 26.6099 52.1918 26.2036C52.1199 25.7974 52.0839 25.3382 52.0839 24.8262V21.7412C52.0839 21.0387 52.1495 20.4357 52.2807 19.9321C52.4119 19.4285 52.6531 19.0413 53.0043 18.7705C53.3598 18.4997 53.8718 18.3643 54.5404 18.3643C54.9509 18.3643 55.2979 18.4277 55.5815 18.5547C55.865 18.6816 56.0935 18.8657 56.267 19.1069C56.4405 19.3439 56.5653 19.6317 56.6415 19.9702C56.7219 20.3088 56.7621 20.6896 56.7621 21.1128V22.1602H55.1371V21.0557C55.1371 20.7806 55.1244 20.5457 55.099 20.3511C55.0737 20.1522 55.0165 20.002 54.9277 19.9004C54.8388 19.7946 54.697 19.7417 54.5024 19.7417C54.3119 19.7417 54.1638 19.7946 54.058 19.9004C53.9522 20.0062 53.8782 20.1606 53.8359 20.3638C53.7978 20.5627 53.7787 20.8018 53.7787 21.0811V25.3721C53.7787 25.6598 53.7957 25.9053 53.8295 26.1084C53.8676 26.3115 53.9353 26.4681 54.0326 26.5781C54.1342 26.6839 54.2823 26.7368 54.477 26.7368C54.6674 26.7368 54.8092 26.6818 54.9023 26.5718C54.9996 26.4575 55.0631 26.2988 55.0927 26.0957C55.1223 25.8926 55.1371 25.6535 55.1371 25.3784V24.2485H56.7621V25.2134C56.7621 25.6493 56.724 26.047 56.6479 26.4067C56.5717 26.7622 56.4469 27.0669 56.2734 27.3208C56.0999 27.5747 55.8692 27.7715 55.5815 27.9111C55.2937 28.0465 54.9403 28.1143 54.5214 28.1143ZM65.6714 28.1143C65.1848 28.1143 64.7828 28.0402 64.4654 27.8921C64.148 27.7397 63.8983 27.5218 63.7164 27.2383C63.5386 26.9548 63.4138 26.6099 63.3419 26.2036C63.2699 25.7974 63.2339 25.3382 63.2339 24.8262V21.7412C63.2339 21.0387 63.2995 20.4357 63.4307 19.9321C63.5619 19.4285 63.8031 19.0413 64.1544 18.7705C64.5098 18.4997 65.0219 18.3643 65.6905 18.3643C66.101 18.3643 66.448 18.4277 66.7315 18.5547C67.015 18.6816 67.2435 18.8657 67.417 19.1069C67.5906 19.3439 67.7154 19.6317 67.7916 19.9702C67.872 20.3088 67.9122 20.6896 67.9122 21.1128V22.1602H66.2872V21.0557C66.2872 20.7806 66.2745 20.5457 66.2491 20.3511C66.2237 20.1522 66.1666 20.002 66.0777 19.9004C65.9888 19.7946 65.8471 19.7417 65.6524 19.7417C65.462 19.7417 65.3139 19.7946 65.2081 19.9004C65.1023 20.0062 65.0282 20.1606 64.9859 20.3638C64.9478 20.5627 64.9288 20.8018 64.9288 21.0811V25.3721C64.9288 25.6598 64.9457 25.9053 64.9795 26.1084C65.0176 26.3115 65.0853 26.4681 65.1827 26.5781C65.2842 26.6839 65.4323 26.7368 65.627 26.7368C65.8174 26.7368 65.9592 26.6818 66.0523 26.5718C66.1496 26.4575 66.2131 26.2988 66.2427 26.0957C66.2724 25.8926 66.2872 25.6535 66.2872 25.3784V24.2485H67.9122V25.2134C67.9122 25.6493 67.8741 26.047 67.7979 26.4067C67.7217 26.7622 67.5969 27.0669 67.4234 27.3208C67.2499 27.5747 67.0193 27.7715 66.7315 27.9111C66.4437 28.0465 66.0904 28.1143 65.6714 28.1143ZM70.7767 28V16.7329H72.4589V19.5703C72.5435 19.2445 72.7128 18.9631 72.9667 18.7261C73.2248 18.4849 73.5485 18.3643 73.9379 18.3643C74.4922 18.3643 74.9091 18.5483 75.1884 18.9165C75.4719 19.2804 75.6137 19.8094 75.6137 20.5034V28H73.9379V20.6621C73.9379 20.3574 73.8786 20.1289 73.7601 19.9766C73.6459 19.82 73.4808 19.7417 73.265 19.7417C73.0915 19.7417 72.9434 19.7904 72.8207 19.8877C72.7022 19.985 72.6112 20.1226 72.5477 20.3003C72.4885 20.478 72.4589 20.6854 72.4589 20.9224V28H70.7767ZM80.2111 28.0952C79.5594 28.0952 79.1066 27.8582 78.8527 27.3843C78.6031 26.9103 78.474 26.2819 78.4655 25.499V24.8896C78.4655 24.3818 78.5375 23.9692 78.6813 23.6519C78.8295 23.3345 79.0389 23.0763 79.3098 22.8774C79.5806 22.6785 79.9043 22.505 80.281 22.3569C80.6576 22.2088 81.0765 22.0501 81.5378 21.8809V21.0493C81.5378 20.7277 81.5251 20.4717 81.4997 20.2812C81.4743 20.0866 81.4172 19.9448 81.3283 19.856C81.2395 19.7671 81.1019 19.7227 80.9157 19.7227C80.7338 19.7227 80.5941 19.7692 80.4968 19.8623C80.4037 19.9512 80.3402 20.0908 80.3063 20.2812C80.2725 20.4674 80.2556 20.7065 80.2556 20.9985V21.4238H78.5925V21.1382C78.5925 20.7023 78.6284 20.313 78.7004 19.9702C78.7766 19.6274 78.9035 19.3376 79.0812 19.1006C79.259 18.8594 79.5002 18.6774 79.8049 18.5547C80.1138 18.4277 80.501 18.3643 80.9665 18.3643C81.377 18.3643 81.7282 18.4235 82.0202 18.542C82.3122 18.6562 82.5492 18.8298 82.7312 19.0625C82.9131 19.291 83.0464 19.5788 83.1311 19.9258C83.2157 20.2728 83.258 20.6769 83.258 21.1382V28H81.5632V27.0542C81.5124 27.2362 81.4257 27.4076 81.3029 27.5684C81.1802 27.7249 81.0257 27.8519 80.8396 27.9492C80.6576 28.0465 80.4481 28.0952 80.2111 28.0952ZM80.7951 26.8003C81.0067 26.8003 81.176 26.7241 81.3029 26.5718C81.4299 26.4194 81.5082 26.265 81.5378 26.1084V22.833C81.2839 22.9473 81.0702 23.0552 80.8967 23.1567C80.7232 23.2541 80.5835 23.362 80.4777 23.4805C80.3719 23.599 80.2958 23.7386 80.2492 23.8994C80.2027 24.0602 80.1794 24.257 80.1794 24.4897V25.5562C80.1794 25.992 80.2238 26.3094 80.3127 26.5083C80.4058 26.703 80.5666 26.8003 80.7951 26.8003ZM86.2432 28V18.4785H87.9253V19.5703C88.0099 19.2445 88.1877 18.9631 88.4585 18.7261C88.7293 18.4849 89.0615 18.3643 89.4551 18.3643C90.0052 18.3643 90.4178 18.5483 90.6929 18.9165C90.968 19.2804 91.1055 19.8094 91.1055 20.5034V28H89.4234V20.605C89.4234 20.3299 89.3599 20.1141 89.2329 19.9575C89.1102 19.8009 88.9409 19.7227 88.7251 19.7227C88.5516 19.7227 88.4035 19.7713 88.2808 19.8687C88.1623 19.9618 88.0734 20.0929 88.0142 20.2622C87.9549 20.4272 87.9253 20.6219 87.9253 20.8462V28H86.2432ZM96.2933 29.4282C95.7686 29.4367 95.3221 29.3859 94.9539 29.2759C94.5858 29.1701 94.2515 28.9945 93.951 28.749L94.5413 27.689C94.7656 27.8328 95.009 27.9492 95.2713 28.0381C95.5379 28.1312 95.8257 28.1756 96.1346 28.1714C96.4562 28.1672 96.7017 28.055 96.8709 27.835C97.0402 27.6149 97.1248 27.3208 97.1248 26.9526V26.1973C97.0148 26.5146 96.8455 26.7326 96.617 26.8511C96.3927 26.9696 96.1198 27.0288 95.7982 27.0288C95.3496 27.0288 94.9963 26.9103 94.7381 26.6733C94.4842 26.4364 94.3044 26.1126 94.1986 25.7021C94.0928 25.2917 94.0399 24.8262 94.0399 24.3057V21.2397C94.0399 20.6854 94.0949 20.1924 94.2049 19.7607C94.3149 19.3249 94.5033 18.9821 94.7699 18.7324C95.0365 18.4827 95.4025 18.36 95.868 18.3643C96.1939 18.3643 96.4626 18.4468 96.6742 18.6118C96.89 18.7769 97.0402 19.0138 97.1248 19.3228V18.4785H98.807V26.8257C98.807 27.2023 98.7647 27.5493 98.68 27.8667C98.5954 28.1799 98.4557 28.4507 98.2611 28.6792C98.0664 28.9119 97.8083 29.0918 97.4867 29.2188C97.165 29.3499 96.7673 29.4198 96.2933 29.4282ZM96.4647 25.7529C96.617 25.7529 96.7419 25.7085 96.8392 25.6196C96.9365 25.5265 97.0085 25.37 97.055 25.1499C97.1016 24.9256 97.1248 24.6146 97.1248 24.2168V21.1001C97.1248 20.6812 97.0741 20.3468 96.9725 20.0972C96.8709 19.8475 96.6869 19.7227 96.4202 19.7227C96.2171 19.7227 96.0669 19.7819 95.9696 19.9004C95.8722 20.0189 95.8088 20.1818 95.7791 20.3892C95.7495 20.5923 95.7347 20.8271 95.7347 21.0938V24.2295C95.7347 24.6992 95.7791 25.0716 95.868 25.3467C95.9569 25.6175 96.1558 25.7529 96.4647 25.7529ZM104.084 28.1143C103.605 28.1143 103.212 28.0381 102.903 27.8857C102.598 27.7334 102.359 27.5133 102.186 27.2256C102.016 26.9378 101.898 26.5929 101.83 26.1909C101.763 25.7847 101.729 25.3319 101.729 24.8325V21.2842C101.729 20.8398 101.773 20.4378 101.862 20.0781C101.955 19.7184 102.097 19.4116 102.287 19.1577C102.482 18.9038 102.734 18.7091 103.043 18.5737C103.352 18.4341 103.724 18.3643 104.16 18.3643C104.604 18.3643 104.974 18.432 105.271 18.5674C105.567 18.7028 105.8 18.8996 105.969 19.1577C106.142 19.4159 106.265 19.7269 106.337 20.0908C106.413 20.4505 106.451 20.8589 106.451 21.3159V23.3535H103.423V25.2261C103.423 25.6873 103.459 26.0576 103.531 26.3369C103.603 26.6162 103.8 26.7559 104.122 26.7559C104.338 26.7559 104.49 26.6903 104.579 26.5591C104.672 26.4279 104.727 26.248 104.744 26.0195C104.765 25.7868 104.776 25.5223 104.776 25.2261V24.3882H106.439V24.896C106.439 25.408 106.407 25.863 106.343 26.2607C106.284 26.6585 106.17 26.995 106.001 27.27C105.836 27.5451 105.599 27.7546 105.29 27.8984C104.981 28.0423 104.579 28.1143 104.084 28.1143ZM103.417 22.3696H104.776V21.1509C104.776 20.8335 104.761 20.5669 104.731 20.3511C104.701 20.131 104.642 19.966 104.553 19.856C104.465 19.7459 104.329 19.6909 104.147 19.6909C103.923 19.6909 103.758 19.7565 103.652 19.8877C103.55 20.0189 103.485 20.1987 103.455 20.4272C103.43 20.6515 103.417 20.9076 103.417 21.1953V22.3696Z" fill="#041737"/>
</svg>
