<svg width="93" height="14" viewBox="0 0 93 14" fill="none" xmlns="http://www.w3.org/2000/svg">
<path d="M0.837891 13.8091V2.47852H2.52002V3.33545C2.64274 3.0223 2.83529 2.78532 3.09766 2.62451C3.36003 2.4637 3.62451 2.3833 3.89111 2.3833C4.37777 2.3833 4.74593 2.51449 4.99561 2.77686C5.24528 3.03499 5.41455 3.38835 5.50342 3.83691C5.59229 4.28548 5.63672 4.78906 5.63672 5.34766V8.81982C5.63672 9.4292 5.5944 9.98356 5.50977 10.4829C5.42513 10.9823 5.24528 11.38 4.97021 11.6763C4.69938 11.9683 4.28467 12.1143 3.72607 12.1143C3.46794 12.1143 3.23307 12.0444 3.02148 11.9048C2.8099 11.7651 2.64274 11.6043 2.52002 11.4224V13.8091H0.837891ZM3.2627 10.7495C3.54622 10.7495 3.73031 10.612 3.81494 10.3369C3.89958 10.0576 3.94189 9.65983 3.94189 9.14355V5.19531C3.94189 4.92025 3.92708 4.67269 3.89746 4.45264C3.87207 4.22835 3.81283 4.05062 3.71973 3.91943C3.62663 3.78825 3.47852 3.72266 3.27539 3.72266C3.11882 3.72266 2.9834 3.76286 2.86914 3.84326C2.75911 3.92367 2.67236 4.06966 2.60889 4.28125C2.54964 4.49284 2.52002 4.79541 2.52002 5.18896V9.21338C2.52002 9.70003 2.56657 10.0788 2.65967 10.3496C2.75277 10.6162 2.95378 10.7495 3.2627 10.7495ZM8.60285 12V0.73291H10.2786V12H8.60285ZM14.9586 12.0952C14.3069 12.0952 13.8541 11.8582 13.6002 11.3843C13.3506 10.9103 13.2215 10.2819 13.213 9.49902V8.88965C13.213 8.38184 13.285 7.96924 13.4288 7.65186C13.577 7.33447 13.7864 7.07633 14.0573 6.87744C14.3281 6.67855 14.6518 6.50505 15.0285 6.35693C15.4051 6.20882 15.824 6.05013 16.2853 5.88086V5.04932C16.2853 4.7277 16.2726 4.47168 16.2472 4.28125C16.2218 4.08659 16.1647 3.94482 16.0758 3.85596C15.987 3.76709 15.8494 3.72266 15.6632 3.72266C15.4813 3.72266 15.3416 3.76921 15.2443 3.8623C15.1512 3.95117 15.0877 4.09082 15.0538 4.28125C15.02 4.46745 15.0031 4.70654 15.0031 4.99854V5.42383H13.34V5.13818C13.34 4.70231 13.376 4.31299 13.4479 3.97021C13.5241 3.62744 13.651 3.33757 13.8287 3.10059C14.0065 2.85938 14.2477 2.67741 14.5524 2.55469C14.8613 2.42773 15.2485 2.36426 15.714 2.36426C16.1245 2.36426 16.4757 2.4235 16.7677 2.54199C17.0597 2.65625 17.2967 2.82975 17.4787 3.0625C17.6606 3.29102 17.7939 3.57878 17.8786 3.92578C17.9632 4.27279 18.0055 4.67692 18.0055 5.13818V12H16.3107V11.0542C16.2599 11.2362 16.1732 11.4076 16.0504 11.5684C15.9277 11.7249 15.7732 11.8519 15.5871 11.9492C15.4051 12.0465 15.1956 12.0952 14.9586 12.0952ZM15.5426 10.8003C15.7542 10.8003 15.9235 10.7241 16.0504 10.5718C16.1774 10.4194 16.2557 10.265 16.2853 10.1084V6.83301C16.0314 6.94727 15.8177 7.05518 15.6442 7.15674C15.4707 7.25407 15.331 7.36198 15.2252 7.48047C15.1194 7.59896 15.0433 7.73861 14.9967 7.89941C14.9502 8.06022 14.9269 8.257 14.9269 8.48975V9.55615C14.9269 9.99202 14.9713 10.3094 15.0602 10.5083C15.1533 10.703 15.3141 10.8003 15.5426 10.8003ZM22.9648 12.1206C22.1989 12.1206 21.6297 11.9027 21.2573 11.4668C20.8849 11.0309 20.6987 10.3179 20.6987 9.32764V8.71191H22.2793V9.47998C22.2793 9.89469 22.33 10.21 22.4316 10.4258C22.5332 10.6416 22.6982 10.7495 22.9267 10.7495C23.1468 10.7495 23.3097 10.6755 23.4155 10.5273C23.5213 10.3792 23.5742 10.1232 23.5742 9.75928C23.5742 9.54769 23.5424 9.34245 23.479 9.14355C23.4197 8.94466 23.3245 8.75 23.1933 8.55957C23.0664 8.36491 22.9013 8.1766 22.6982 7.99463L21.8413 7.22021C21.4477 6.86475 21.1536 6.48177 20.9589 6.07129C20.7643 5.65658 20.667 5.19954 20.667 4.7002C20.667 3.89193 20.8553 3.3016 21.2319 2.9292C21.6128 2.55257 22.1756 2.36426 22.9204 2.36426C23.4028 2.36426 23.8027 2.45524 24.1201 2.63721C24.4375 2.81494 24.6744 3.10482 24.831 3.50684C24.9876 3.90885 25.0659 4.4484 25.0659 5.12549V5.646H23.5615V5.01758C23.5615 4.59863 23.5128 4.28125 23.4155 4.06543C23.3224 3.84961 23.1616 3.7417 22.9331 3.7417C22.7088 3.7417 22.5437 3.80518 22.4379 3.93213C22.3322 4.05485 22.275 4.27279 22.2666 4.58594C22.2623 4.75521 22.2835 4.92236 22.33 5.0874C22.3766 5.24821 22.4485 5.4069 22.5459 5.56348C22.6474 5.71582 22.7786 5.86605 22.9394 6.01416L23.8408 6.83301C24.3147 7.26042 24.6639 7.70687 24.8881 8.17236C25.1167 8.63786 25.2309 9.14144 25.2309 9.68311C25.2309 10.4829 25.049 11.0902 24.685 11.5049C24.3211 11.9154 23.7477 12.1206 22.9648 12.1206ZM29.6126 12.0635C29.2063 12.0635 28.8953 12.0127 28.6795 11.9111C28.4637 11.8053 28.3155 11.6403 28.2351 11.416C28.1547 11.1917 28.1145 10.9019 28.1145 10.5464V3.89404H27.3401V2.67529H28.1145V0.828125H29.7967V2.67529H30.7234V3.89404H29.7967V10.2544C29.7967 10.4025 29.8199 10.5146 29.8665 10.5908C29.913 10.667 30.004 10.7178 30.1394 10.7432C30.2791 10.7686 30.4843 10.7812 30.7552 10.7812V12.0635H29.6126ZM33.4039 12V2.47852H35.086V12H33.4039ZM33.3976 1.60254V0.142578H35.0924V1.60254H33.3976ZM40.5214 12.1143C40.0348 12.1143 39.6327 12.0402 39.3153 11.8921C38.998 11.7397 38.7483 11.5218 38.5663 11.2383C38.3886 10.9548 38.2638 10.6099 38.1918 10.2036C38.1199 9.79736 38.0839 9.33822 38.0839 8.82617V5.74121C38.0839 5.03874 38.1495 4.43571 38.2807 3.93213C38.4119 3.42855 38.6531 3.04134 39.0043 2.77051C39.3598 2.49967 39.8718 2.36426 40.5404 2.36426C40.9509 2.36426 41.2979 2.42773 41.5815 2.55469C41.865 2.68164 42.0935 2.86572 42.267 3.10693C42.4405 3.34391 42.5653 3.63167 42.6415 3.97021C42.7219 4.30876 42.7621 4.68962 42.7621 5.11279V6.16016H41.1371V5.05566C41.1371 4.7806 41.1244 4.54574 41.099 4.35107C41.0737 4.15218 41.0165 4.00195 40.9277 3.90039C40.8388 3.7946 40.697 3.7417 40.5024 3.7417C40.3119 3.7417 40.1638 3.7946 40.058 3.90039C39.9522 4.00618 39.8782 4.16064 39.8359 4.36377C39.7978 4.56266 39.7787 4.80176 39.7787 5.08105V9.37207C39.7787 9.65983 39.7957 9.90527 39.8295 10.1084C39.8676 10.3115 39.9353 10.4681 40.0326 10.5781C40.1342 10.6839 40.2823 10.7368 40.477 10.7368C40.6674 10.7368 40.8092 10.6818 40.9023 10.5718C40.9996 10.4575 41.0631 10.2988 41.0927 10.0957C41.1223 9.89258 41.1371 9.65348 41.1371 9.37842V8.24854H42.7621V9.21338C42.7621 9.64925 42.724 10.047 42.6479 10.4067C42.5717 10.7622 42.4469 11.0669 42.2734 11.3208C42.0999 11.5747 41.8692 11.7715 41.5815 11.9111C41.2937 12.0465 40.9403 12.1143 40.5214 12.1143ZM51.6714 12.1143C51.1848 12.1143 50.7828 12.0402 50.4654 11.8921C50.148 11.7397 49.8983 11.5218 49.7164 11.2383C49.5386 10.9548 49.4138 10.6099 49.3419 10.2036C49.2699 9.79736 49.2339 9.33822 49.2339 8.82617V5.74121C49.2339 5.03874 49.2995 4.43571 49.4307 3.93213C49.5619 3.42855 49.8031 3.04134 50.1544 2.77051C50.5098 2.49967 51.0219 2.36426 51.6905 2.36426C52.101 2.36426 52.448 2.42773 52.7315 2.55469C53.015 2.68164 53.2435 2.86572 53.417 3.10693C53.5906 3.34391 53.7154 3.63167 53.7916 3.97021C53.872 4.30876 53.9122 4.68962 53.9122 5.11279V6.16016H52.2872V5.05566C52.2872 4.7806 52.2745 4.54574 52.2491 4.35107C52.2237 4.15218 52.1666 4.00195 52.0777 3.90039C51.9888 3.7946 51.8471 3.7417 51.6524 3.7417C51.462 3.7417 51.3139 3.7946 51.2081 3.90039C51.1023 4.00618 51.0282 4.16064 50.9859 4.36377C50.9478 4.56266 50.9288 4.80176 50.9288 5.08105V9.37207C50.9288 9.65983 50.9457 9.90527 50.9795 10.1084C51.0176 10.3115 51.0853 10.4681 51.1827 10.5781C51.2842 10.6839 51.4323 10.7368 51.627 10.7368C51.8174 10.7368 51.9592 10.6818 52.0523 10.5718C52.1496 10.4575 52.2131 10.2988 52.2427 10.0957C52.2724 9.89258 52.2872 9.65348 52.2872 9.37842V8.24854H53.9122V9.21338C53.9122 9.64925 53.8741 10.047 53.7979 10.4067C53.7217 10.7622 53.5969 11.0669 53.4234 11.3208C53.2499 11.5747 53.0193 11.7715 52.7315 11.9111C52.4437 12.0465 52.0904 12.1143 51.6714 12.1143ZM56.7767 12V0.73291H58.4589V3.57031C58.5435 3.24447 58.7128 2.96305 58.9667 2.72607C59.2248 2.48486 59.5485 2.36426 59.9379 2.36426C60.4922 2.36426 60.9091 2.54834 61.1884 2.9165C61.4719 3.28044 61.6137 3.80941 61.6137 4.50342V12H59.9379V4.66211C59.9379 4.35742 59.8786 4.12891 59.7601 3.97656C59.6459 3.81999 59.4808 3.7417 59.265 3.7417C59.0915 3.7417 58.9434 3.79036 58.8207 3.8877C58.7022 3.98503 58.6112 4.12256 58.5477 4.30029C58.4885 4.47803 58.4589 4.68538 58.4589 4.92236V12H56.7767ZM66.2111 12.0952C65.5594 12.0952 65.1066 11.8582 64.8527 11.3843C64.6031 10.9103 64.474 10.2819 64.4655 9.49902V8.88965C64.4655 8.38184 64.5375 7.96924 64.6813 7.65186C64.8295 7.33447 65.0389 7.07633 65.3098 6.87744C65.5806 6.67855 65.9043 6.50505 66.281 6.35693C66.6576 6.20882 67.0765 6.05013 67.5378 5.88086V5.04932C67.5378 4.7277 67.5251 4.47168 67.4997 4.28125C67.4743 4.08659 67.4172 3.94482 67.3283 3.85596C67.2395 3.76709 67.1019 3.72266 66.9157 3.72266C66.7338 3.72266 66.5941 3.76921 66.4968 3.8623C66.4037 3.95117 66.3402 4.09082 66.3063 4.28125C66.2725 4.46745 66.2556 4.70654 66.2556 4.99854V5.42383H64.5925V5.13818C64.5925 4.70231 64.6284 4.31299 64.7004 3.97021C64.7766 3.62744 64.9035 3.33757 65.0812 3.10059C65.259 2.85938 65.5002 2.67741 65.8049 2.55469C66.1138 2.42773 66.501 2.36426 66.9665 2.36426C67.377 2.36426 67.7282 2.4235 68.0202 2.54199C68.3122 2.65625 68.5492 2.82975 68.7312 3.0625C68.9131 3.29102 69.0464 3.57878 69.1311 3.92578C69.2157 4.27279 69.258 4.67692 69.258 5.13818V12H67.5632V11.0542C67.5124 11.2362 67.4257 11.4076 67.3029 11.5684C67.1802 11.7249 67.0257 11.8519 66.8396 11.9492C66.6576 12.0465 66.4481 12.0952 66.2111 12.0952ZM66.7951 10.8003C67.0067 10.8003 67.176 10.7241 67.3029 10.5718C67.4299 10.4194 67.5082 10.265 67.5378 10.1084V6.83301C67.2839 6.94727 67.0702 7.05518 66.8967 7.15674C66.7232 7.25407 66.5835 7.36198 66.4777 7.48047C66.3719 7.59896 66.2958 7.73861 66.2492 7.89941C66.2027 8.06022 66.1794 8.257 66.1794 8.48975V9.55615C66.1794 9.99202 66.2238 10.3094 66.3127 10.5083C66.4058 10.703 66.5666 10.8003 66.7951 10.8003ZM72.2432 12V2.47852H73.9253V3.57031C74.0099 3.24447 74.1877 2.96305 74.4585 2.72607C74.7293 2.48486 75.0615 2.36426 75.4551 2.36426C76.0052 2.36426 76.4178 2.54834 76.6929 2.9165C76.968 3.28044 77.1055 3.80941 77.1055 4.50342V12H75.4234V4.60498C75.4234 4.32992 75.3599 4.1141 75.2329 3.95752C75.1102 3.80094 74.9409 3.72266 74.7251 3.72266C74.5516 3.72266 74.4035 3.77132 74.2808 3.86865C74.1623 3.96175 74.0734 4.09294 74.0142 4.26221C73.9549 4.42725 73.9253 4.62191 73.9253 4.84619V12H72.2432ZM82.2933 13.4282C81.7686 13.4367 81.3221 13.3859 80.9539 13.2759C80.5858 13.1701 80.2515 12.9945 79.951 12.749L80.5413 11.689C80.7656 11.8328 81.009 11.9492 81.2713 12.0381C81.5379 12.1312 81.8257 12.1756 82.1346 12.1714C82.4562 12.1672 82.7017 12.055 82.8709 11.835C83.0402 11.6149 83.1248 11.3208 83.1248 10.9526V10.1973C83.0148 10.5146 82.8455 10.7326 82.617 10.8511C82.3927 10.9696 82.1198 11.0288 81.7982 11.0288C81.3496 11.0288 80.9963 10.9103 80.7381 10.6733C80.4842 10.4364 80.3044 10.1126 80.1986 9.70215C80.0928 9.29167 80.0399 8.82617 80.0399 8.30566V5.23975C80.0399 4.68538 80.0949 4.19238 80.2049 3.76074C80.3149 3.32487 80.5033 2.9821 80.7699 2.73242C81.0365 2.48275 81.4025 2.36003 81.868 2.36426C82.1939 2.36426 82.4626 2.44678 82.6742 2.61182C82.89 2.77686 83.0402 3.01383 83.1248 3.32275V2.47852H84.807V10.8257C84.807 11.2023 84.7647 11.5493 84.68 11.8667C84.5954 12.1799 84.4557 12.4507 84.2611 12.6792C84.0664 12.9119 83.8083 13.0918 83.4867 13.2188C83.165 13.3499 82.7673 13.4198 82.2933 13.4282ZM82.4647 9.75293C82.617 9.75293 82.7419 9.7085 82.8392 9.61963C82.9365 9.52653 83.0085 9.36995 83.055 9.1499C83.1016 8.92562 83.1248 8.61458 83.1248 8.2168V5.1001C83.1248 4.68115 83.0741 4.34684 82.9725 4.09717C82.8709 3.84749 82.6869 3.72266 82.4202 3.72266C82.2171 3.72266 82.0669 3.7819 81.9696 3.90039C81.8722 4.01888 81.8088 4.1818 81.7791 4.38916C81.7495 4.59229 81.7347 4.82715 81.7347 5.09375V8.22949C81.7347 8.69922 81.7791 9.07161 81.868 9.34668C81.9569 9.61751 82.1558 9.75293 82.4647 9.75293ZM90.0836 12.1143C89.6055 12.1143 89.2119 12.0381 88.903 11.8857C88.5983 11.7334 88.3592 11.5133 88.1857 11.2256C88.0164 10.9378 87.8979 10.5929 87.8302 10.1909C87.7625 9.78467 87.7287 9.33187 87.7287 8.83252V5.28418C87.7287 4.83984 87.7731 4.43783 87.862 4.07812C87.9551 3.71842 88.0968 3.41162 88.2873 3.15771C88.4819 2.90381 88.7337 2.70915 89.0426 2.57373C89.3516 2.43408 89.7239 2.36426 90.1598 2.36426C90.6042 2.36426 90.9744 2.43197 91.2707 2.56738C91.5669 2.7028 91.7996 2.89958 91.9689 3.15771C92.1424 3.41585 92.2651 3.72689 92.3371 4.09082C92.4132 4.45052 92.4513 4.85889 92.4513 5.31592V7.35352H89.4235V9.22607C89.4235 9.68734 89.4595 10.0576 89.5314 10.3369C89.6033 10.6162 89.8001 10.7559 90.1217 10.7559C90.3376 10.7559 90.4899 10.6903 90.5788 10.5591C90.6719 10.4279 90.7269 10.248 90.7438 10.0195C90.765 9.78678 90.7755 9.5223 90.7755 9.22607V8.38818H92.4386V8.896C92.4386 9.40804 92.4069 9.86296 92.3434 10.2607C92.2842 10.6585 92.1699 10.995 92.0006 11.27C91.8356 11.5451 91.5986 11.7546 91.2897 11.8984C90.9808 12.0423 90.5788 12.1143 90.0836 12.1143ZM89.4171 6.36963H90.7755V5.15088C90.7755 4.8335 90.7607 4.56689 90.7311 4.35107C90.7015 4.13102 90.6422 3.96598 90.5534 3.85596C90.4645 3.74593 90.3291 3.69092 90.1471 3.69092C89.9228 3.69092 89.7578 3.75651 89.652 3.8877C89.5504 4.01888 89.4849 4.19873 89.4552 4.42725C89.4298 4.65153 89.4171 4.90755 89.4171 5.19531V6.36963Z" fill="#041737"/>
</svg>
