<svg width="60" height="60" viewBox="0 0 60 60" fill="none" xmlns="http://www.w3.org/2000/svg">
<path d="M56.1501 15C54.2251 15.875 52.1501 16.45 50.0001 16.725C52.2001 15.4 53.9001 13.3 54.7001 10.775C52.6251 12.025 50.3251 12.9 47.9001 13.4C45.9251 11.25 43.1501 10 40.0001 10C34.1251 10 29.3251 14.8 29.3251 20.725C29.3251 21.575 29.4251 22.4 29.6001 23.175C20.7001 22.725 12.7751 18.45 7.5001 11.975C6.5751 13.55 6.0501 15.4 6.0501 17.35C6.0501 21.075 7.9251 24.375 10.8251 26.25C9.0501 26.25 7.4001 25.75 5.9501 25V25.075C5.9501 30.275 9.6501 34.625 14.5501 35.6C12.9772 36.0323 11.3252 36.0923 9.7251 35.775C10.4041 37.9062 11.7339 39.771 13.5276 41.1073C15.3213 42.4436 17.4887 43.1842 19.7251 43.225C15.9343 46.2263 11.2351 47.8485 6.4001 47.825C5.5501 47.825 4.7001 47.775 3.8501 47.675C8.6001 50.725 14.2501 52.5 20.3001 52.5C40.0001 52.5 50.8251 36.15 50.8251 21.975C50.8251 21.5 50.8251 21.05 50.8001 20.575C52.9001 19.075 54.7001 17.175 56.1501 15Z" fill="#041737"/>
</svg>
